<svg xmlns="http://www.w3.org/2000/svg" viewBox="0 0 174.5 174.5"><defs><style>.cls-1{fill:#1d1d1b;}</style></defs><g id="Layer_2" data-name="Layer 2"><g id="Layer_1-2" data-name="Layer 1"><path class="cls-1" d="M87.25,15.72c23.29,0,26.06.09,35.25.51,8.51.39,13.13,1.81,16.2,3a28.86,28.86,0,0,1,16.56,16.56c1.2,3.08,2.62,7.7,3,16.2.42,9.2.51,12,.51,35.26s-.09,26.06-.51,35.26c-.39,8.5-1.81,13.12-3,16.2a28.86,28.86,0,0,1-16.56,16.56c-3.07,1.19-7.69,2.61-16.2,3-9.19.42-12,.51-35.25.51s-26.06-.09-35.26-.51c-8.51-.39-13.12-1.81-16.2-3a27.16,27.16,0,0,1-10-6.53,27,27,0,0,1-6.53-10c-1.19-3.08-2.62-7.7-3-16.2-.42-9.2-.51-12-.51-35.26s.09-26.06.51-35.26c.38-8.5,1.81-13.12,3-16.2a26.91,26.91,0,0,1,6.53-10,27.16,27.16,0,0,1,10-6.53c3.08-1.19,7.69-2.61,16.2-3,9.2-.42,12-.51,35.26-.51M87.25,0c-23.7,0-26.67.1-36,.53S35.65,2.42,30.1,4.58A42.85,42.85,0,0,0,14.64,14.64,42.85,42.85,0,0,0,4.58,30.1C2.42,35.65,1,42,.52,51.28S0,63.55,0,87.25s.1,26.67.52,36,1.9,15.63,4.06,21.18a42.73,42.73,0,0,0,10.06,15.45A42.75,42.75,0,0,0,30.1,169.92c5.55,2.16,11.89,3.63,21.17,4.05s12.28.53,36,.53,26.66-.1,36-.53,15.63-1.89,21.18-4.05a44.7,44.7,0,0,0,25.52-25.52c2.15-5.55,3.63-11.89,4.05-21.18s.53-12.27.53-36-.1-26.67-.53-36-1.9-15.63-4.05-21.18a42.88,42.88,0,0,0-10.07-15.46A42.73,42.73,0,0,0,144.4,4.58c-5.55-2.16-11.89-3.63-21.18-4S110.94,0,87.25,0Z"/><path class="cls-1" d="M87.25,42.45a44.8,44.8,0,1,0,44.8,44.8,44.79,44.79,0,0,0-44.8-44.8m0,73.88a29.08,29.08,0,1,1,29.08-29.08A29.07,29.07,0,0,1,87.25,116.33Z"/><path class="cls-1" d="M144.29,40.68a10.47,10.47,0,1,1-10.47-10.47,10.47,10.47,0,0,1,10.47,10.47"/></g></g></svg>